<svg width="704.000000" height="200.000000" viewBox="0 0 704 200" fill="none" xmlns="http://www.w3.org/2000/svg" xmlns:xlink="http://www.w3.org/1999/xlink">
	<desc>
			Created with Pixso.
	</desc>
	<defs>
		<clipPath id="clip36_23">
			<rect id="svg" width="156.000015" height="156.000015" transform="translate(21.999992 22.000000)" fill="white" fill-opacity="0"/>
		</clipPath>
		<clipPath id="clip36_22">
			<rect id="icon" rx="24.000000" width="200.000000" height="200.000000" fill="white" fill-opacity="0"/>
		</clipPath>
		<clipPath id="clip36_21">
			<rect id="logo" width="704.000000" height="200.000000" fill="white" fill-opacity="0"/>
		</clipPath>
	</defs>
	<g clip-path="url(#clip36_21)">
		<path id="CircleHub" d="M335.05 68.53C335.05 72.21 331.86 75.21 327.92 75.21C323.98 75.21 320.77 72.21 320.77 68.53C320.77 64.8 323.98 61.8 327.92 61.8C331.86 61.8 335.05 64.8 335.05 68.53ZM281.1 64.21C296.57 64.21 308.5 73.21 310.65 88.73L297.9 88.73C296.43 80.39 289.77 75.58 281.28 75.58C269.87 75.58 261.83 84.35 261.83 100.1C261.83 116.1 269.94 124.59 281.26 124.59C289.6 124.59 296.28 120 297.9 111.82L310.65 111.89C308.71 125.22 297.69 135.96 281.1 135.96C262.68 135.96 249.1 122.62 249.1 100.1C249.1 77.53 262.84 64.21 281.1 64.21ZM438.09 65.17L450.41 65.17L450.41 135L438.09 135L438.09 65.17ZM533.18 135L520.55 135L520.55 65.17L533.18 65.17L533.18 94.73L565.55 94.73L565.55 65.17L578.22 65.17L578.22 135L565.55 135L565.55 105.35L533.18 105.35L533.18 135ZM662.5 135L650.36 135L650.36 65.17L662.69 65.17L662.69 91.28L663.21 91.28C665.08 87.51 668.95 81.96 678.18 81.96C690.28 81.96 699.79 91.42 699.79 108.89C699.79 126.14 690.56 135.91 678.21 135.91C669.21 135.91 665.15 130.57 663.21 126.75L662.5 126.75L662.5 135ZM359.08 135L346.76 135L346.76 82.64L358.71 82.64L358.71 91.35L359.25 91.35C361.17 85.28 366.19 81.89 372.19 81.89C373.55 81.89 375.49 82.03 376.62 82.21L376.62 93.58C375.56 93.23 372.96 92.85 370.87 92.85C364.1 92.85 359.08 97.57 359.08 104.22L359.08 135ZM427.91 117.09C427.02 128.22 418.65 136.03 405.48 136.03C389.83 136.03 380.4 124.87 380.4 109.03C380.4 93.02 390.08 81.96 405.41 81.96C418.21 81.96 427.07 89.41 427.91 100.78L416.12 100.78C415.16 95.71 411.53 91.89 405.58 91.89C397.98 91.89 392.9 98.25 392.9 108.82C392.9 119.53 397.89 125.97 405.58 125.97C411.01 125.97 415.07 122.71 416.12 117.09L427.91 117.09ZM509.05 120.96C506.87 130.05 498.48 136.03 486.29 136.03C470.49 136.03 460.86 125.55 460.86 109.12C460.86 92.97 470.63 81.96 485.63 81.96C498.52 81.96 509.56 90.02 509.56 108.39L509.56 112.19L473.09 112.19C473.19 121.14 478.48 126.39 486.45 126.39C491.77 126.39 495.85 124.1 497.54 119.64L509.05 120.96ZM334.06 135L321.73 135L321.73 82.64L334.06 82.64L334.06 135ZM613.65 124.89C619.11 124.89 624.8 120.96 624.8 112.96L624.8 82.64L637.13 82.64L637.13 135L625.18 135L625.18 125.69L624.61 125.69C622.22 131.55 616.71 135.67 608.86 135.67C598.58 135.67 591.43 128.55 591.43 115.96L591.43 82.64L603.75 82.64L603.75 114.07C603.75 120.72 607.71 124.89 613.65 124.89ZM485.8 91.57C478.44 91.57 473.49 97.19 473.12 103.87L497.73 103.87C497.66 96.75 492.9 91.57 485.8 91.57ZM674.76 92.08C666.82 92.08 662.46 98.64 662.46 108.82C662.46 118.96 666.89 125.78 674.76 125.78C682.92 125.78 687.21 118.64 687.21 108.82C687.21 99.07 682.99 92.08 674.76 92.08Z" fill="#1F1F1F" fill-opacity="1.000000" fill-rule="evenodd"/>
		<rect id="icon" rx="24.000000" width="200.000000" height="200.000000" fill="#2881E6" fill-opacity="1.000000"/>
		<g clip-path="url(#clip36_22)">
			<g clip-path="url(#clip36_23)">
				<path id="path" d="M157.53 138.06L157.54 138.08C156.3 139.95 153.87 140.45 152 139.21C150.13 137.97 149.63 135.53 150.87 133.67L150.9 133.66L157.53 138.06ZM133.66 150.9L133.67 150.87C135.53 149.63 137.97 150.13 139.21 152C140.45 153.87 139.95 156.3 138.08 157.54L138.06 157.53L133.66 150.9Z" fill="#000000" fill-opacity="0" fill-rule="nonzero"/>
				<path id="path" d="M154.21 135.88C157.15 131.42 159.51 126.68 161.29 121.65C163.07 116.62 164.21 111.45 164.71 106.14C165.22 100.82 165.07 95.53 164.27 90.25C163.47 84.98 162.04 79.87 159.98 74.95C157.92 70.03 155.3 65.42 152.11 61.15C148.92 56.87 145.26 53.04 141.13 49.66C136.99 46.29 132.51 43.46 127.68 41.19C122.86 38.92 117.82 37.27 112.59 36.23C107.35 35.2 102.07 34.82 96.74 35.08C91.41 35.35 86.19 36.26 81.09 37.81C75.98 39.37 71.14 41.52 66.56 44.26C61.99 47.01 57.81 50.27 54.04 54.04C50.27 57.81 47.01 61.99 44.26 66.56C41.52 71.14 39.37 75.98 37.81 81.09C36.26 86.19 35.35 91.41 35.08 96.74C34.82 102.07 35.2 107.35 36.23 112.59C37.27 117.82 38.92 122.86 41.19 127.68C43.46 132.51 46.29 136.99 49.66 141.13C53.04 145.26 56.87 148.92 61.15 152.11C65.43 155.3 70.03 157.92 74.95 159.98C79.87 162.04 84.98 163.47 90.25 164.27C95.53 165.07 100.82 165.22 106.14 164.71C111.45 164.21 116.62 163.07 121.65 161.29C126.68 159.51 131.42 157.15 135.88 154.21" stroke="#F6F6F6" stroke-opacity="1.000000" stroke-width="8.000000" stroke-linejoin="round" stroke-linecap="round"/>
				<circle id="circle" cx="145.500000" cy="145.500000" r="13.000002" fill="#F6F6F6" fill-opacity="1.000000"/>
				<circle id="circle" cx="145.500000" cy="145.500000" r="13.000002" stroke="#F6F6F6" stroke-opacity="1.000000" stroke-width="8.000000" stroke-linejoin="round"/>
				<path id="path" d="M106.36 111.99L106.33 111.99C104.75 110.41 104.75 107.92 106.33 106.33C107.92 104.75 110.4 104.75 111.99 106.33L111.99 106.36L106.36 111.99ZM139.13 133.5L139.16 133.5C140.74 135.09 140.74 137.57 139.16 139.16C137.57 140.74 135.09 140.74 133.5 139.16L133.5 139.13L139.13 133.5Z" fill="#000000" fill-opacity="0" fill-rule="nonzero"/>
				<path id="path" d="M109.16 109.16L136.33 136.33" stroke="#F6F6F6" stroke-opacity="1.000000" stroke-width="8.000000" stroke-linejoin="round" stroke-linecap="round"/>
				<circle id="circle" cx="100.000000" cy="100.000000" r="13.000002" fill="#F6F6F6" fill-opacity="1.000000"/>
				<circle id="circle" cx="100.000000" cy="100.000000" r="13.000002" stroke="#F6F6F6" stroke-opacity="1.000000" stroke-width="8.000000" stroke-linejoin="round"/>
			</g>
		</g>
	</g>
</svg>
